<?xml version="1.0" encoding="utf-8"?>
<!-- Generator: Adobe Illustrator 16.0.0, SVG Export Plug-In . SVG Version: 6.00 Build 0)  -->
<!DOCTYPE svg PUBLIC "-//W3C//DTD SVG 1.1//EN" "http://www.w3.org/Graphics/SVG/1.1/DTD/svg11.dtd">
<svg version="1.1" xmlns="http://www.w3.org/2000/svg" xmlns:xlink="http://www.w3.org/1999/xlink" x="0px" y="0px" width="266px"
	 height="32.25px" viewBox="0 0 266 32.25" enable-background="new 0 0 266 32.25" xml:space="preserve">
<g id="Layer_1">
	<g>
		<g>
			<path fill="#FFFFFF" d="M1.447,1.912h5.242c4.102,0,6.153,2.547,6.153,7.641c0,1.945-0.267,3.389-0.8,4.331
				c-0.533,0.941-1.475,1.654-2.825,2.136c1.549,0.621,2.608,1.414,3.178,2.38c0.583,0.954,0.874,2.391,0.874,4.312
				c0,5.267-2.256,7.9-6.767,7.9H1.447V1.912z M5.09,14.553c1.5,0,2.541-0.347,3.124-1.042c0.582-0.73,0.873-2.014,0.873-3.847
				c0-3.098-1.116-4.647-3.346-4.647H5.444H5.277c-0.1,0-0.162,0.006-0.187,0.019V14.553z M5.09,27.303
				c1.587,0,2.683-0.34,3.291-1.021c0.607-0.682,0.91-1.916,0.91-3.699c0-1.834-0.316-3.116-0.948-3.847
				c-0.619-0.744-1.704-1.116-3.252-1.116V27.303z"/>
			<path fill="#FFFFFF" d="M17.117,1.912h5.094c2.106,0,3.673,0.502,4.703,1.506c1.301,1.302,1.951,3.291,1.951,5.967
				c0,2.058-0.344,3.708-1.031,4.954c-0.688,1.246-1.67,2.017-2.947,2.313l5.279,13.96h-3.923l-5.26-14.053v14.053h-3.866V1.912z
				 M20.983,14.627c1.5,0,2.56-0.348,3.179-1.041c0.62-0.694,0.929-1.865,0.929-3.513c0-0.893-0.064-1.654-0.195-2.287
				c-0.13-0.632-0.335-1.146-0.614-1.543c-0.278-0.396-0.638-0.688-1.078-0.873c-0.439-0.187-0.963-0.28-1.571-0.28h-0.65V14.627z"
				/>
			<path fill="#FFFFFF" d="M47.192,16.969c0,5.069-0.564,8.667-1.692,10.8c-1.128,2.131-3.017,3.197-5.669,3.197
				c-2.787,0-4.751-1.146-5.892-3.438c-1.127-2.243-1.691-6.227-1.691-11.952c0-5.106,0.558-8.718,1.672-10.836
				c1.128-2.132,3.037-3.198,5.726-3.198c2.404,0,4.188,0.825,5.353,2.472c0.768,1.103,1.326,2.671,1.673,4.704
				C47.018,10.599,47.192,13.351,47.192,16.969z M43.14,17.377c0-4.969-0.223-8.265-0.669-9.889
				c-0.446-1.635-1.356-2.453-2.732-2.453c-1.376,0-2.293,0.749-2.751,2.248c-0.446,1.512-0.669,4.548-0.669,9.109
				c0,4.2,0.236,7.113,0.707,8.736c0.483,1.537,1.388,2.305,2.714,2.305c1.302,0,2.193-0.718,2.677-2.156
				C42.898,23.853,43.14,21.219,43.14,17.377z"/>
			<path fill="#FFFFFF" d="M65.389,16.969c0,5.069-0.563,8.667-1.691,10.8c-1.128,2.131-3.017,3.197-5.669,3.197
				c-2.788,0-4.752-1.146-5.892-3.438c-1.128-2.243-1.692-6.227-1.692-11.952c0-5.106,0.558-8.718,1.673-10.836
				c1.128-2.132,3.037-3.198,5.726-3.198c2.404,0,4.188,0.825,5.353,2.472c0.769,1.103,1.327,2.671,1.673,4.704
				C65.215,10.599,65.389,13.351,65.389,16.969z M61.337,17.377c0-4.969-0.223-8.265-0.669-9.889
				c-0.446-1.635-1.356-2.453-2.733-2.453c-1.375,0-2.292,0.749-2.75,2.248c-0.446,1.512-0.669,4.548-0.669,9.109
				c0,4.2,0.235,7.113,0.706,8.736c0.483,1.537,1.388,2.305,2.713,2.305c1.302,0,2.194-0.718,2.678-2.156
				C61.095,23.853,61.337,21.219,61.337,17.377z"/>
			<path fill="#FFFFFF" d="M69.218,1.912h3.866v13.904l5.391-13.904h3.903l-5.651,13.904l6.097,14.797h-4.35l-5.391-14.797v14.797
				h-3.866V1.912z"/>
			<path fill="#FFFFFF" d="M85.241,1.912h3.867v25.429h6.32v3.271H85.241V1.912z"/>
			<path fill="#FFFFFF" d="M94.145,1.912h4.089l1.896,6.246c0.062,0.186,0.123,0.39,0.186,0.613
				c0.062,0.224,0.136,0.465,0.223,0.725c0.706,2.256,1.19,4.151,1.449,5.688c0.224-1.536,0.41-2.608,0.558-3.215l0.595-2.565
				l0.224-1.003l1.598-6.488h4.034l-5,16.358v12.343h-3.866V18.27L94.145,1.912z"/>
			<path fill="#FFFFFF" d="M111.133,1.912h3.606l3.847,11.451c1.116,3.234,2.1,6.685,2.956,10.353
				c-0.309-2.218-0.539-4.226-0.688-6.022c-0.149-1.797-0.223-3.488-0.223-5.074V1.912h3.884v28.701h-3.625l-4.33-12.919
				c-0.397-1.202-0.772-2.435-1.125-3.699c-0.353-1.264-0.678-2.59-0.975-3.978c-0.026-0.173-0.066-0.385-0.121-0.632
				c-0.056-0.248-0.121-0.532-0.195-0.854c0.037,0.322,0.069,0.598,0.093,0.828c0.025,0.229,0.044,0.424,0.056,0.585l0.205,2.918
				l0.204,3.55c0.013,0.198,0.022,0.439,0.029,0.725c0.006,0.284,0.009,0.607,0.009,0.967l0.204,12.51h-3.811V1.912z"/>
		</g>
		<g>
			<path fill="#FFFFFF" d="M135.074,14.638c0.165-0.52,0.413-0.979,0.744-1.379s0.743-0.719,1.235-0.958s1.065-0.358,1.72-0.358
				c0.654,0,1.228,0.119,1.72,0.358c0.493,0.239,0.904,0.558,1.235,0.958s0.579,0.86,0.745,1.379
				c0.166,0.519,0.248,1.06,0.248,1.621c0,0.562-0.083,1.103-0.248,1.622c-0.166,0.52-0.414,0.979-0.745,1.379
				c-0.331,0.4-0.742,0.717-1.235,0.953c-0.492,0.234-1.066,0.352-1.72,0.352c-0.654,0-1.228-0.117-1.72-0.352
				c-0.492-0.235-0.904-0.552-1.235-0.953c-0.331-0.4-0.579-0.86-0.744-1.379c-0.166-0.519-0.248-1.06-0.248-1.622
				C134.826,15.697,134.908,15.157,135.074,14.638z M136.084,17.488c0.107,0.404,0.277,0.768,0.507,1.091
				c0.231,0.323,0.527,0.583,0.888,0.779c0.362,0.196,0.792,0.294,1.293,0.294c0.5,0,0.931-0.098,1.292-0.294
				s0.658-0.456,0.889-0.779c0.231-0.324,0.4-0.687,0.508-1.091c0.107-0.403,0.162-0.813,0.162-1.229
				c0-0.415-0.054-0.825-0.162-1.229c-0.108-0.404-0.277-0.768-0.508-1.091c-0.231-0.324-0.527-0.583-0.889-0.779
				s-0.792-0.294-1.292-0.294c-0.5,0-0.931,0.098-1.293,0.294c-0.361,0.196-0.657,0.456-0.888,0.779
				c-0.23,0.323-0.4,0.687-0.507,1.091c-0.108,0.403-0.162,0.813-0.162,1.229C135.922,16.674,135.976,17.084,136.084,17.488z"/>
			<path fill="#FFFFFF" d="M149.299,20.379v-0.946h-0.023c-0.208,0.369-0.473,0.64-0.796,0.813
				c-0.324,0.173-0.705,0.259-1.143,0.259c-0.393,0-0.72-0.052-0.981-0.155c-0.261-0.104-0.473-0.252-0.635-0.444
				c-0.161-0.192-0.275-0.421-0.341-0.687c-0.065-0.265-0.097-0.56-0.097-0.882v-3.924h0.98v4.039c0,0.37,0.108,0.662,0.323,0.877
				c0.216,0.215,0.512,0.323,0.889,0.323c0.3,0,0.56-0.046,0.779-0.139c0.22-0.092,0.402-0.223,0.548-0.393
				c0.146-0.169,0.256-0.367,0.329-0.594s0.11-0.476,0.11-0.745v-3.37h0.98v5.967H149.299z"/>
			<path fill="#FFFFFF" d="M155.634,14.413v0.866h-1.188v3.705c0,0.116,0.01,0.208,0.029,0.277c0.02,0.069,0.056,0.124,0.11,0.162
				c0.054,0.039,0.129,0.064,0.225,0.075c0.097,0.012,0.221,0.018,0.376,0.018h0.449v0.866h-0.75c-0.254,0-0.472-0.018-0.652-0.052
				c-0.181-0.034-0.328-0.098-0.439-0.19c-0.112-0.092-0.195-0.223-0.248-0.393c-0.054-0.169-0.081-0.392-0.081-0.669v-3.797h-1.016
				v-0.866h1.016v-1.789h0.98v1.789H155.634z"/>
			<path fill="#FFFFFF" d="M162.456,20.379v-0.808h-0.023c-0.162,0.331-0.416,0.569-0.762,0.716
				c-0.347,0.146-0.728,0.219-1.143,0.219c-0.461,0-0.864-0.084-1.206-0.253c-0.343-0.169-0.627-0.396-0.854-0.681
				c-0.227-0.285-0.398-0.615-0.514-0.992c-0.116-0.377-0.173-0.777-0.173-1.2s0.056-0.823,0.167-1.201
				c0.111-0.377,0.281-0.706,0.508-0.986c0.227-0.281,0.512-0.504,0.854-0.669c0.343-0.166,0.74-0.248,1.194-0.248
				c0.154,0,0.319,0.015,0.497,0.046s0.354,0.083,0.531,0.155c0.177,0.073,0.344,0.17,0.502,0.289
				c0.158,0.12,0.291,0.268,0.398,0.445h0.023v-3.07h0.98v8.241H162.456z M158.929,18.261c0.073,0.266,0.185,0.502,0.334,0.71
				c0.15,0.208,0.343,0.374,0.577,0.497c0.235,0.123,0.51,0.185,0.825,0.185c0.331,0,0.612-0.065,0.842-0.196
				c0.231-0.13,0.42-0.302,0.566-0.514c0.146-0.211,0.251-0.452,0.317-0.721c0.065-0.269,0.098-0.543,0.098-0.82
				c0-0.292-0.034-0.575-0.104-0.848c-0.069-0.273-0.179-0.513-0.329-0.721c-0.15-0.208-0.344-0.375-0.583-0.502
				s-0.527-0.19-0.866-0.19c-0.331,0-0.611,0.065-0.842,0.196c-0.23,0.131-0.416,0.305-0.554,0.52
				c-0.139,0.215-0.238,0.461-0.3,0.738c-0.062,0.277-0.092,0.562-0.092,0.854C158.82,17.725,158.856,17.996,158.929,18.261z"/>
			<path fill="#FFFFFF" d="M166.194,16.172c0.123-0.381,0.308-0.712,0.554-0.992c0.246-0.281,0.55-0.502,0.912-0.664
				c0.361-0.162,0.777-0.242,1.247-0.242c0.477,0,0.894,0.081,1.252,0.242c0.357,0.161,0.659,0.382,0.906,0.664
				c0.246,0.28,0.431,0.611,0.554,0.992s0.185,0.791,0.185,1.229c0,0.439-0.062,0.847-0.185,1.224
				c-0.123,0.377-0.308,0.706-0.554,0.986c-0.247,0.281-0.549,0.5-0.906,0.658c-0.358,0.157-0.775,0.236-1.252,0.236
				c-0.47,0-0.886-0.079-1.247-0.236c-0.362-0.158-0.666-0.376-0.912-0.658c-0.246-0.28-0.431-0.609-0.554-0.986
				c-0.123-0.377-0.185-0.785-0.185-1.224C166.01,16.963,166.071,16.553,166.194,16.172z M167.193,18.365
				c0.096,0.281,0.229,0.516,0.397,0.704c0.169,0.189,0.368,0.333,0.595,0.433c0.227,0.101,0.467,0.15,0.722,0.15
				c0.253,0,0.494-0.05,0.721-0.15c0.226-0.1,0.425-0.244,0.594-0.433c0.169-0.188,0.302-0.423,0.398-0.704
				c0.096-0.28,0.145-0.602,0.145-0.964c0-0.361-0.048-0.683-0.145-0.964c-0.097-0.28-0.229-0.517-0.398-0.709
				c-0.169-0.192-0.368-0.338-0.594-0.439c-0.227-0.1-0.468-0.149-0.721-0.149c-0.254,0-0.495,0.05-0.722,0.149
				c-0.227,0.101-0.425,0.247-0.595,0.439c-0.169,0.192-0.302,0.429-0.397,0.709c-0.097,0.281-0.145,0.603-0.145,0.964
				C167.049,17.763,167.097,18.085,167.193,18.365z"/>
			<path fill="#FFFFFF" d="M174.204,16.172c0.123-0.381,0.308-0.712,0.554-0.992c0.246-0.281,0.55-0.502,0.912-0.664
				c0.361-0.162,0.777-0.242,1.247-0.242c0.477,0,0.894,0.081,1.252,0.242c0.357,0.161,0.659,0.382,0.906,0.664
				c0.246,0.28,0.431,0.611,0.554,0.992s0.185,0.791,0.185,1.229c0,0.439-0.062,0.847-0.185,1.224
				c-0.123,0.377-0.308,0.706-0.554,0.986c-0.247,0.281-0.548,0.5-0.906,0.658c-0.358,0.157-0.776,0.236-1.252,0.236
				c-0.47,0-0.886-0.079-1.247-0.236c-0.362-0.158-0.666-0.376-0.912-0.658c-0.246-0.28-0.431-0.609-0.554-0.986
				c-0.123-0.377-0.185-0.785-0.185-1.224C174.019,16.963,174.081,16.553,174.204,16.172z M175.203,18.365
				c0.096,0.281,0.229,0.516,0.397,0.704c0.169,0.189,0.368,0.333,0.595,0.433c0.227,0.101,0.467,0.15,0.722,0.15
				c0.253,0,0.494-0.05,0.721-0.15c0.227-0.1,0.425-0.244,0.594-0.433c0.169-0.188,0.301-0.423,0.398-0.704
				c0.096-0.28,0.145-0.602,0.145-0.964c0-0.361-0.048-0.683-0.145-0.964c-0.097-0.28-0.229-0.517-0.398-0.709
				c-0.169-0.192-0.368-0.338-0.594-0.439c-0.227-0.1-0.468-0.149-0.721-0.149c-0.254,0-0.495,0.05-0.722,0.149
				c-0.227,0.101-0.425,0.247-0.595,0.439c-0.169,0.192-0.302,0.429-0.397,0.709c-0.097,0.281-0.145,0.603-0.145,0.964
				C175.058,17.763,175.106,18.085,175.203,18.365z"/>
			<path fill="#FFFFFF" d="M183.24,14.413v1.257h0.023c0.239-0.484,0.531-0.842,0.877-1.073c0.346-0.23,0.785-0.338,1.316-0.323
				v1.038c-0.393,0-0.727,0.054-1.004,0.162c-0.278,0.107-0.5,0.265-0.669,0.473c-0.17,0.207-0.293,0.46-0.37,0.756
				c-0.077,0.296-0.115,0.636-0.115,1.021v2.654h-0.981v-5.967H183.24z"/>
			<path fill="#FFFFFF" d="M191.574,15.278v-0.866h1.004v-0.889c0-0.484,0.141-0.852,0.421-1.102c0.281-0.25,0.691-0.375,1.23-0.375
				c0.092,0,0.198,0.008,0.317,0.023c0.12,0.015,0.225,0.038,0.317,0.069v0.854c-0.084-0.03-0.177-0.051-0.277-0.063
				c-0.101-0.012-0.193-0.018-0.277-0.018c-0.239,0-0.423,0.046-0.555,0.138c-0.13,0.092-0.195,0.27-0.195,0.531v0.831h1.153v0.866
				h-1.153v5.101h-0.981v-5.101H191.574z"/>
			<path fill="#FFFFFF" d="M197.032,13.339v-1.2h0.981v1.2H197.032z M198.013,14.413v5.967h-0.981v-5.967H198.013z"/>
			<path fill="#FFFFFF" d="M201.96,12.139v8.241h-0.981v-8.241H201.96z"/>
			<path fill="#FFFFFF" d="M205.792,14.413v0.876h0.023c0.446-0.676,1.088-1.015,1.927-1.015c0.37,0,0.705,0.077,1.004,0.23
				c0.3,0.154,0.512,0.416,0.635,0.784c0.2-0.323,0.464-0.572,0.791-0.75c0.327-0.177,0.686-0.265,1.079-0.265
				c0.3,0,0.571,0.033,0.814,0.098c0.242,0.065,0.45,0.167,0.623,0.305c0.173,0.139,0.308,0.318,0.404,0.537
				c0.096,0.219,0.145,0.482,0.145,0.79v4.375h-0.981v-3.913c0-0.185-0.016-0.358-0.046-0.519c-0.031-0.162-0.088-0.302-0.173-0.421
				c-0.085-0.119-0.202-0.214-0.352-0.283c-0.15-0.069-0.344-0.104-0.583-0.104c-0.485,0-0.866,0.139-1.143,0.416
				s-0.415,0.646-0.415,1.108v3.716h-0.981v-3.913c0-0.192-0.017-0.369-0.052-0.531c-0.034-0.162-0.094-0.302-0.179-0.421
				c-0.085-0.119-0.198-0.211-0.34-0.276c-0.142-0.066-0.325-0.099-0.548-0.099c-0.285,0-0.53,0.058-0.733,0.173
				c-0.204,0.116-0.369,0.254-0.497,0.416c-0.126,0.162-0.219,0.329-0.276,0.502c-0.058,0.173-0.087,0.317-0.087,0.433v3.716h-0.98
				v-5.967H205.792z"/>
			<path fill="#FFFFFF" d="M220.092,15.278v-0.866h1.004v-0.889c0-0.484,0.141-0.852,0.421-1.102c0.281-0.25,0.69-0.375,1.229-0.375
				c0.092,0,0.198,0.008,0.317,0.023c0.119,0.015,0.225,0.038,0.317,0.069v0.854c-0.084-0.03-0.176-0.051-0.277-0.063
				c-0.1-0.012-0.192-0.018-0.277-0.018c-0.239,0-0.423,0.046-0.554,0.138c-0.13,0.092-0.196,0.27-0.196,0.531v0.831h1.154v0.866
				h-1.154v5.101h-0.981v-5.101H220.092z"/>
			<path fill="#FFFFFF" d="M229.718,19.999c-0.447,0.338-1.009,0.507-1.686,0.507c-0.477,0-0.891-0.077-1.241-0.23
				s-0.645-0.369-0.883-0.646c-0.239-0.277-0.417-0.608-0.537-0.993c-0.12-0.384-0.187-0.803-0.202-1.257
				c0-0.454,0.069-0.87,0.208-1.247c0.138-0.377,0.333-0.704,0.583-0.981c0.25-0.277,0.546-0.492,0.888-0.646
				c0.343-0.154,0.718-0.23,1.126-0.23c0.531,0,0.971,0.109,1.321,0.329c0.351,0.219,0.632,0.498,0.845,0.836
				c0.213,0.339,0.36,0.708,0.44,1.108c0.082,0.401,0.114,0.782,0.099,1.143h-4.471c-0.008,0.262,0.023,0.51,0.092,0.745
				c0.069,0.234,0.18,0.442,0.335,0.623c0.154,0.181,0.35,0.325,0.588,0.433c0.239,0.107,0.52,0.161,0.843,0.161
				c0.415,0,0.755-0.096,1.021-0.289c0.266-0.192,0.441-0.485,0.525-0.877h0.974C230.456,19.156,230.166,19.66,229.718,19.999z
				 M229.48,16.167c-0.088-0.208-0.208-0.387-0.357-0.537c-0.15-0.15-0.327-0.269-0.531-0.357c-0.204-0.089-0.429-0.133-0.675-0.133
				c-0.254,0-0.483,0.044-0.687,0.133c-0.204,0.088-0.378,0.209-0.525,0.363c-0.146,0.154-0.262,0.333-0.347,0.537
				c-0.084,0.204-0.134,0.421-0.149,0.652h3.428C229.622,16.594,229.568,16.375,229.48,16.167z"/>
			<path fill="#FFFFFF" d="M233.83,19.046c0.093,0.15,0.213,0.27,0.363,0.357c0.15,0.089,0.319,0.152,0.509,0.19
				c0.188,0.039,0.382,0.058,0.582,0.058c0.153,0,0.315-0.012,0.484-0.035c0.17-0.023,0.325-0.065,0.469-0.126
				c0.142-0.062,0.259-0.152,0.352-0.272c0.092-0.119,0.138-0.271,0.138-0.456c0-0.254-0.096-0.446-0.288-0.577
				c-0.192-0.131-0.433-0.236-0.722-0.317c-0.288-0.082-0.602-0.155-0.94-0.22c-0.338-0.065-0.651-0.158-0.94-0.277
				c-0.288-0.12-0.529-0.287-0.721-0.502c-0.193-0.215-0.289-0.515-0.289-0.9c0-0.3,0.067-0.557,0.202-0.773
				c0.134-0.215,0.308-0.391,0.52-0.525c0.211-0.134,0.449-0.234,0.715-0.299c0.266-0.065,0.529-0.098,0.791-0.098
				c0.338,0,0.65,0.028,0.935,0.086c0.284,0.058,0.536,0.157,0.756,0.3c0.22,0.142,0.395,0.334,0.525,0.577
				c0.131,0.241,0.208,0.544,0.23,0.906h-0.98c-0.016-0.193-0.065-0.353-0.15-0.479c-0.085-0.127-0.192-0.229-0.322-0.306
				c-0.132-0.077-0.275-0.132-0.434-0.167c-0.158-0.035-0.317-0.052-0.479-0.052c-0.146,0-0.295,0.011-0.444,0.035
				c-0.15,0.023-0.287,0.064-0.41,0.121c-0.123,0.058-0.223,0.135-0.3,0.231c-0.077,0.096-0.116,0.221-0.116,0.375
				c0,0.169,0.06,0.31,0.179,0.421c0.12,0.111,0.272,0.204,0.457,0.277s0.393,0.135,0.623,0.185c0.23,0.05,0.461,0.103,0.692,0.156
				c0.246,0.054,0.486,0.12,0.721,0.196c0.235,0.077,0.442,0.179,0.624,0.306c0.181,0.127,0.327,0.287,0.438,0.479
				c0.111,0.192,0.167,0.431,0.167,0.715c0,0.362-0.075,0.662-0.225,0.901c-0.15,0.238-0.347,0.431-0.589,0.577
				c-0.242,0.146-0.516,0.248-0.819,0.305c-0.304,0.058-0.606,0.086-0.906,0.086c-0.331,0-0.646-0.034-0.946-0.103
				c-0.3-0.07-0.565-0.183-0.797-0.341c-0.23-0.158-0.415-0.365-0.554-0.623c-0.138-0.258-0.216-0.571-0.23-0.941h0.98
				C233.688,18.714,233.738,18.896,233.83,19.046z"/>
			<path fill="#FFFFFF" d="M242.786,14.413v0.866h-1.188v3.705c0,0.116,0.01,0.208,0.029,0.277c0.02,0.069,0.056,0.124,0.109,0.162
				c0.055,0.039,0.129,0.064,0.225,0.075c0.097,0.012,0.222,0.018,0.376,0.018h0.449v0.866h-0.749c-0.255,0-0.472-0.018-0.652-0.052
				c-0.181-0.034-0.327-0.098-0.438-0.19c-0.112-0.092-0.195-0.223-0.248-0.393c-0.055-0.169-0.081-0.392-0.081-0.669v-3.797h-1.016
				v-0.866h1.016v-1.789h0.98v1.789H242.786z"/>
			<path fill="#FFFFFF" d="M245.313,13.339v-1.2h0.981v1.2H245.313z M246.295,14.413v5.967h-0.981v-5.967H246.295z"/>
			<path fill="#FFFFFF" d="M250.842,20.379l-2.215-5.967h1.096l1.674,4.975h0.022l1.628-4.975h1.027l-2.182,5.967H250.842z"/>
			<path fill="#FFFFFF" d="M261.645,20.356c-0.169,0.1-0.404,0.15-0.704,0.15c-0.254,0-0.456-0.071-0.606-0.213
				c-0.148-0.142-0.225-0.375-0.225-0.699c-0.27,0.324-0.583,0.557-0.94,0.699s-0.744,0.213-1.16,0.213
				c-0.27,0-0.524-0.031-0.768-0.092c-0.242-0.062-0.451-0.157-0.629-0.289c-0.177-0.13-0.317-0.302-0.421-0.513
				s-0.156-0.467-0.156-0.768c0-0.338,0.059-0.615,0.174-0.831c0.115-0.215,0.268-0.391,0.455-0.525
				c0.188-0.134,0.404-0.236,0.647-0.305c0.242-0.07,0.489-0.127,0.744-0.174c0.27-0.053,0.524-0.094,0.768-0.121
				c0.242-0.027,0.455-0.065,0.641-0.116c0.185-0.05,0.33-0.123,0.438-0.219c0.108-0.096,0.162-0.236,0.162-0.421
				c0-0.215-0.04-0.389-0.121-0.52c-0.081-0.131-0.185-0.23-0.312-0.3c-0.127-0.069-0.27-0.115-0.427-0.138
				c-0.158-0.023-0.313-0.035-0.468-0.035c-0.415,0-0.762,0.079-1.038,0.237c-0.278,0.157-0.428,0.456-0.451,0.894h-0.981
				c0.016-0.369,0.094-0.681,0.231-0.935c0.139-0.253,0.323-0.459,0.554-0.617c0.231-0.158,0.495-0.271,0.791-0.34
				c0.296-0.07,0.613-0.104,0.952-0.104c0.27,0,0.536,0.019,0.803,0.057c0.265,0.039,0.506,0.117,0.721,0.236
				c0.216,0.119,0.389,0.286,0.52,0.501c0.13,0.214,0.196,0.495,0.196,0.84v3.064c0,0.23,0.013,0.4,0.04,0.507
				c0.027,0.107,0.117,0.161,0.271,0.161c0.085,0,0.185-0.015,0.3-0.046V20.356z M260.052,17.297
				c-0.123,0.092-0.284,0.159-0.484,0.202s-0.41,0.077-0.629,0.103c-0.22,0.027-0.44,0.058-0.664,0.092
				c-0.223,0.035-0.423,0.09-0.6,0.167c-0.178,0.076-0.322,0.185-0.434,0.327c-0.111,0.142-0.167,0.335-0.167,0.58
				c0,0.161,0.032,0.297,0.099,0.407c0.065,0.111,0.149,0.202,0.253,0.271c0.104,0.069,0.226,0.119,0.364,0.149
				c0.139,0.031,0.284,0.046,0.438,0.046c0.323,0,0.601-0.044,0.831-0.132s0.42-0.199,0.565-0.333
				c0.146-0.134,0.254-0.279,0.323-0.436c0.069-0.158,0.104-0.305,0.104-0.442V17.297z"/>
			<path fill="#FFFFFF" d="M264.98,12.139v8.241h-0.981v-8.241H264.98z"/>
		</g>
	</g>
</g>
<g id="Layer_2">
</g>
</svg>
